<svg width="118" height="94" viewBox="0 0 118 94" fill="none" xmlns="http://www.w3.org/2000/svg">
<path d="M110.775 93.255H16.0623C12.0786 93.255 8.83779 90.5085 8.83779 87.1326V75.1195H4.87004C2.18461 75.1195 0 73.2683 0 70.9927V53.0181C0 50.7423 2.18461 48.891 4.87004 48.891H8.83779V45.2689H4.87004C2.18461 45.2689 0 43.4175 0 41.1419V23.1673C0 20.8917 2.18461 19.0404 4.87004 19.0404H8.83779V6.86733C8.83779 3.49136 12.0786 0.744873 16.0623 0.744873H110.775C114.759 0.744873 118 3.49136 118 6.86733V87.1326C118 90.5085 114.759 93.255 110.775 93.255ZM4.87004 52.9726C4.83984 52.9726 4.81634 52.9925 4.81634 53.0181V70.9927C4.81634 71.0181 4.83984 71.038 4.87004 71.038H11.246C12.576 71.038 13.6541 71.9517 13.6541 73.0789V87.1328C13.6541 88.2582 14.7343 89.1736 16.0623 89.1736H110.775C112.103 89.1736 113.184 88.2582 113.184 87.1328V6.86733C113.184 5.74194 112.103 4.82651 110.775 4.82651H16.0623C14.7343 4.82651 13.6541 5.74194 13.6541 6.86733V21.0812C13.6541 22.2083 12.576 23.122 11.246 23.122H4.87004C4.83984 23.122 4.81634 23.1417 4.81634 23.1673V41.1419C4.81634 41.1673 4.83984 41.1873 4.87004 41.1873H11.246C12.576 41.1873 13.6541 42.1009 13.6541 43.2281V50.9318C13.6541 52.0589 12.576 52.9726 11.246 52.9726H4.87004Z" fill="black"/>
</svg>

